# xmcd
#
# Track frame offsets: 
#        150
#        16446
#        22029
#        33817
#        45158
#        52609
#        68704
#        80491
#        95799
#        112731
#        126974
#        142562
#        154706
#        170114
#        189240
#        203114
#        216645
#        230132
#        244691
#        258788
#        267584
#        273427
#        278816
#        284978
#        295002
#        304995
#
# Disc length: 4324 seconds
#
# Revision: 2
# Processed by: cddbd v1.5.1PL2 Copyright (c) Steve Scherf et al.
# Submitted via: ExactAudioCopy v0.95a5
#
DISCID=7b10e21a
DTITLE=Dimitra Galanh - Alkistis Prwtopsalth - Live στο Vox
DYEAR=2005
DGENRE=
TTITLE0=Posa grafei h agaph akoma
TTITLE1=Mou takses taksidi na me pas
TTITLE2=S'agapw
TTITLE3=Zw
TTITLE4=H mpalanta twn ais8hsewn kai twn parais8hsewn
TTITLE5=Mh mou milas gi'agaph and Xwris amortiser
TTITLE6=Ta xartina
TTITLE7=Venzinadiko
TTITLE8=Me to idio mako
TTITLE9=Trava skandalh
TTITLE10=Combo combo
TTITLE11=OLE, OLE, OLA
TTITLE12=To s'agapw mporei
TTITLE13=O aggelos mou
TTITLE14=An mou thlefwnouses
TTITLE15=Adwnis
TTITLE16=To granazi
TTITLE17=Den eisai edw
TTITLE18=Ta laika
TTITLE19=Oh, Carol
TTITLE20=Rita Ritaki
TTITLE21=She loves you 
TTITLE22=To sxoleio
TTITLE23=S'opoion aresoume
TTITLE24=Post love
TTITLE25=To xeirokrothma
EXTD=
EXTT0=
EXTT1=
EXTT2=
EXTT3=
EXTT4=
EXTT5=
EXTT6=
EXTT7=
EXTT8=
EXTT9=
EXTT10=
EXTT11=
EXTT12=
EXTT13=
EXTT14=
EXTT15=
EXTT16=
EXTT17=
EXTT18=
EXTT19=
EXTT20=
EXTT21=
EXTT22=
EXTT23=
EXTT24=
EXTT25=
PLAYORDER=
